<svg width="28" height="28" viewBox="0 0 28 28" fill="none" xmlns="http://www.w3.org/2000/svg">
<path d="M23.3332 14.3202C23.3332 14.7632 23.004 15.1293 22.577 15.1872L22.4582 15.1952L4.95822 15.1952C4.47497 15.1952 4.08322 14.8034 4.08322 14.3202C4.08322 13.8772 4.4124 13.5111 4.83949 13.4532L4.95822 13.4452L22.4582 13.4452C22.9415 13.4452 23.3332 13.8369 23.3332 14.3202Z" fill="#212121"/>
<path d="M12.6338 20.7285C12.9762 21.0695 12.9774 21.6235 12.6365 21.9659C12.3265 22.2772 11.8404 22.3065 11.4974 22.0531L11.399 21.9686L4.3407 14.9406C4.02846 14.6297 4.00005 14.1419 4.2555 13.7988L4.34065 13.7006L11.399 6.67138C11.7414 6.33038 12.2954 6.33153 12.6364 6.67395C12.9464 6.98523 12.9737 7.4714 12.7188 7.81342L12.6339 7.91138L6.19848 14.3209L12.6338 20.7285Z" fill="#212121"/>
</svg>
