<svg width="174" height="161" viewBox="0 0 174 161" fill="none" xmlns="http://www.w3.org/2000/svg">
<path d="M78.7841 156.429C80.0726 165.128 43.2588 158.982 4.84357 156.429V146.925C3.67528 136.68 66.6867 153.607 60.0976 148.214C55.3753 144.348 48.3378 141.287 52.5262 136.132C57.3648 130.177 113.746 137.77 109.812 135.647C105.878 133.524 100.396 128.672 100.531 127.111C99.6016 123.815 128.4 125.822 154.335 128.561C133.877 127.916 101.82 125.5 103.753 127.755C105.686 130.01 117.116 134.843 117.607 139.354C118.097 143.864 54.6207 137.098 60.0976 139.354C65.5745 141.609 75.3974 149.066 78.7841 156.429Z" fill="#757575"/>
<path d="M0.333374 136.777L4.84391 156.43L17.7311 140.804L13.865 132.427L16.6035 125.339C32.5833 88.3649 50.2885 70.2413 92.4771 41.0891C50.9383 70.935 35.5118 89.7225 20.3086 126.467C55.9545 124.018 72.9869 114.31 100.854 89.8995H77.979C109.56 79.0268 124.753 69.1198 147.892 45.4386L130.172 42.0557C153.607 31.5571 163.442 22.8923 173.667 0.333252C155.087 4.84113 144.136 3.81485 124.695 2.58852C97.2646 2.85304 86.7817 5.9516 77.979 17.4088L82.9728 4.84378C40.5342 17.5314 24.1048 31.0114 17.409 74.5959L13.3817 47.2106C0.307488 76.376 -0.0226566 93.0688 10.9653 123.406L7.74354 131.461L0.333374 136.777Z" fill="#A4634D"/>
</svg>
