<svg width="174" height="161" viewBox="0 0 174 161" fill="none" xmlns="http://www.w3.org/2000/svg">
<path d="M78.7837 156.429C80.0723 165.128 43.2585 158.982 4.8432 156.429V146.925C3.67491 136.68 66.6863 153.607 60.0972 148.214C55.375 144.348 48.3375 141.287 52.5258 136.132C57.3644 130.177 113.745 137.77 109.812 135.647C105.878 133.524 100.396 128.672 100.531 127.111C99.6013 123.815 128.399 125.822 154.335 128.561C133.876 127.916 101.82 125.5 103.753 127.755C105.686 130.01 117.116 134.843 117.606 139.354C118.097 143.864 54.6203 137.098 60.0972 139.354C65.5741 141.609 75.3971 149.066 78.7837 156.429Z" fill="#E0E0E0"/>
<path d="M0.333008 136.777L4.84354 156.43L17.7308 140.804L13.8646 132.427L16.6031 125.339C32.5829 88.3649 50.2881 70.2413 92.4768 41.0891C50.9379 70.935 35.5115 89.7225 20.3082 126.467C55.9541 124.018 72.9865 114.31 100.853 89.8995H77.9786C109.559 79.0268 124.753 69.1198 147.892 45.4386L130.172 42.0557C153.607 31.5571 163.442 22.8923 173.666 0.333252C155.087 4.84113 144.136 3.81485 124.695 2.58852C97.2642 2.85304 86.7814 5.9516 77.9786 17.4088L82.9724 4.84378C40.5338 17.5314 24.1044 31.0114 17.4086 74.5959L13.3813 47.2106C0.307122 76.376 -0.0230229 93.0688 10.965 123.406L7.74317 131.461L0.333008 136.777Z" fill="#A4634D"/>
</svg>
